<?xml version="1.0" encoding="utf-8"?>
<svg fill="#ffffff" width="800px" height="800px" viewBox="0 0 32 32" version="1.1" xmlns="http://www.w3.org/2000/svg">
<title>itunes</title>
<path d="M21.135 22.899c0.891-0.251 1.577-0.941 1.818-1.816l0.004-0.018 0.077-0.27 0.010-7.23c0.008-5.416 0-7.265-0.030-7.367-0.030-0.104-0.081-0.194-0.148-0.268l0 0.001c-0.094-0.057-0.208-0.091-0.33-0.091-0.005 0-0.010 0-0.015 0h0.001c-0.266 0.022-0.506 0.057-0.74 0.104l0.040-0.007c-1.301 0.237-8.967 1.763-9.099 1.812-0.215 0.087-0.388 0.242-0.496 0.437l-0.084 0.165s-0.039 11.334-0.097 11.462c-0.097 0.2-0.262 0.354-0.464 0.435l-0.006 0.002q-0.378 0.098-0.761 0.171c-0.99 0.063-1.884 0.43-2.602 1.008l0.009-0.007c-0.273 0.273-0.472 0.621-0.563 1.010l-0.003 0.014c-0.031 0.15-0.048 0.323-0.048 0.5 0 0.27 0.041 0.53 0.117 0.775l-0.005-0.018c0.126 0.352 0.328 0.65 0.589 0.886l0.002 0.002c0.238 0.183 0.52 0.323 0.826 0.401l0.016 0.004c0.213 0.036 0.458 0.056 0.708 0.056 0.725 0 1.409-0.172 2.014-0.478l-0.026 0.012c0.331-0.21 0.608-0.471 0.828-0.777l0.006-0.009c0.091-0.142 0.174-0.306 0.243-0.478l0.007-0.020c0.22-0.57 0.226-10.723 0.255-10.851 0.040-0.21 0.195-0.375 0.396-0.429l0.004-0.001c0.184-0.050 7.567-1.508 7.775-1.537 0.027-0.005 0.057-0.008 0.088-0.008 0.143 0 0.271 0.061 0.361 0.158l0 0c0.056 0.029 0.102 0.069 0.135 0.119l0.001 0.001c0.076 0.64 0.12 1.382 0.12 2.134 0 0.474-0.017 0.943-0.051 1.408l0.004-0.062c0.010 3.699 0.015 3.614-0.186 3.848-0.146 0.17-0.329 0.236-1.080 0.387-0.735 0.107-1.398 0.303-2.018 0.578l0.049-0.019c-0.481 0.206-0.861 0.572-1.078 1.031l-0.005 0.013c-0.143 0.267-0.228 0.584-0.228 0.92 0 0.008 0 0.015 0 0.023v-0.001c-0 0.008-0 0.016-0 0.025 0 0.608 0.265 1.154 0.685 1.529l0.002 0.002c0.044 0.043 0.086 0.082 0.13 0.121 0.222 0.174 0.488 0.302 0.778 0.365l0.013 0.002c0.192 0.026 0.415 0.040 0.641 0.040 0.502 0 0.988-0.072 1.446-0.207l-0.036 0.009zM7.881 27.338c2.25 1.643 5.072 2.63 8.124 2.63 4.635 0 8.738-2.274 11.255-5.768l0.028-0.041c1.633-2.263 2.611-5.092 2.611-8.15 0-4.648-2.261-8.768-5.743-11.32l-0.039-0.027c-2.25-1.644-5.072-2.63-8.123-2.63-4.634 0-8.738 2.274-11.254 5.768l-0.028 0.041c-1.633 2.263-2.612 5.093-2.612 8.151 0 4.648 2.261 8.768 5.743 11.32l0.039 0.027zM15.971 30.994c-7.396-0.031-13.524-5.426-14.694-12.494l-0.012-0.087c-0.126-0.731-0.199-1.573-0.199-2.431 0-7.409 5.379-13.562 12.445-14.766l0.089-0.012c0.716-0.121 1.54-0.191 2.381-0.191 7.417 0 13.571 5.404 14.741 12.489l0.012 0.087c0.126 0.731 0.199 1.573 0.199 2.431 0 7.409-5.379 13.562-12.445 14.766l-0.089 0.012c-0.73 0.124-1.57 0.196-2.428 0.196h-0z"></path>
</svg>
