<svg xmlns="http://www.w3.org/2000/svg" fill="none" viewBox="0 0 102.2 102.04081632653062" style="max-height: 500px" width="102.2" height="102.04081632653062">
<path fill="#ffffff" d="M7.48248 7.02943C0.663345 13.8486 0.459342 24.6995 0.453244 45.9994C19.5412 45.9993 31.4588 37.8045 41.9125 30.6162C50.0792 25.0007 57.3524 19.9994 66.4531 19.9994C79.9985 19.9994 91.8256 29.5768 98.0969 34.6552C98.9812 35.3713 99.7551 35.998 100.408 36.4957C100.21 21.3094 99.1447 12.7505 93.4236 7.02943C86.3942 -1.2251e-06 75.0805 -2.21418e-06 52.453 -4.19233e-06L48.453 -4.54202e-06C25.8256 1.10922e-06 14.5119 1.20145e-07 7.48248 7.02943ZM45.5131 99.9994C46.4713 100 47.4511 100 48.4531 100L52.453 100L52.4531 100C53.455 100 54.4347 100 55.3928 99.9994L45.5131 99.9994Z" clip-rule="evenodd" fill-rule="evenodd"/>
<path fill="#ffffff" d="M77.9536 50.9751C77.9536 48.5036 79.9821 46.5001 82.4536 46.5001C84.9251 46.5001 86.9536 48.5036 86.9536 50.9751V69.0251C86.9536 71.4965 84.9251 73.5001 82.4536 73.5001C79.9821 73.5001 77.9536 71.4965 77.9536 69.0251V50.9751Z"/>
<path fill="#ffffff" d="M61.9541 39.4752C61.9541 37.0037 63.9826 35.0002 66.4541 35.0002C68.9256 35.0002 70.9541 37.0037 70.9541 39.4752V80.5252C70.9541 82.9967 68.9256 85.0002 66.4541 85.0002C63.9826 85.0002 61.9541 82.9967 61.9541 80.5252V39.4752Z"/>
<path fill="#ffffff" d="M45.9541 50.9751C45.9541 48.5036 47.9826 46.5001 50.4541 46.5001C52.9256 46.5001 54.9541 48.5036 54.9541 50.9751V69.0251C54.9541 71.4965 52.9256 73.5001 50.4541 73.5001C47.9826 73.5001 45.9541 71.4965 45.9541 69.0251V50.9751Z"/>
<path fill="#ffffff" d="M29.9521 57.4749C29.9521 55.0034 31.9807 52.9999 34.4521 52.9999C36.9236 52.9999 38.9521 55.0034 38.9521 57.4749V62.5249C38.9521 64.9964 36.9236 66.9999 34.4521 66.9999C31.9807 66.9999 29.9521 64.9964 29.9521 62.5249V57.4749Z"/>
<path fill="#ffffff" d="M13.9521 57.4749C13.9521 55.0034 15.9807 52.9999 18.4521 52.9999C20.9236 52.9999 22.9521 55.0034 22.9521 57.4749V62.5249C22.9521 64.9964 20.9236 66.9999 18.4521 66.9999C15.9807 66.9999 13.9521 64.9964 13.9521 62.5249V57.4749Z"/>
</svg>
