<?xml version="1.0" encoding="UTF-8"?>
<svg id="_Слой_2" data-name="Слой 2" xmlns="http://www.w3.org/2000/svg" viewBox="0 0 22 22">
  <defs>
    <style>
      .cls-1 {
        fill: #ffffff;
        stroke-width: 0px;
      }
    </style>
  </defs>
  <g id="_Слой_1-2" data-name="Слой 1">
    <path class="cls-1" d="M21.79,8.39l-.09-.43-3.63-.63,2.11-2.85-.25-.27-3.1,1.49.39-3.95-.32-.18-1.89,3.19L12.91,0h-.37l.5,4.6L7.71.33l-.45.13,4.11,5.16L3.24,2.91l-.37.41,7.26,4.13L.11,8.29l-.11.62,10.41,1.13L1.73,17.22l.37.5,10.33-5.62-2.05,9.9h.63l3.96-9.31,2.41,7.29.43-.33-.99-7.41,3.76,4.27.25-.39-2.88-5.29,4.02,1.49.04-.45-3.6-2.66,3.4-.82Z"/>
  </g>
</svg>
